<?xml version="1.0" encoding="UTF-8" standalone="no"?>
<!-- Created with Inkscape (http://www.inkscape.org/) -->

<svg
   width="128"
   height="128"
   viewBox="0 0 33.866666 33.866666"
   version="1.1"
   id="svg5"
   xml:space="preserve"
   inkscape:version="1.2.2 (732a01da63, 2022-12-09)"
   sodipodi:docname="tecnologia.svg"
   inkscape:export-filename="..\img\iconosservicios\efectos.png"
   inkscape:export-xdpi="96"
   inkscape:export-ydpi="96"
   xmlns:inkscape="http://www.inkscape.org/namespaces/inkscape"
   xmlns:sodipodi="http://sodipodi.sourceforge.net/DTD/sodipodi-0.dtd"
   xmlns="http://www.w3.org/2000/svg"
   xmlns:svg="http://www.w3.org/2000/svg"><sodipodi:namedview
     id="namedview7"
     pagecolor="#ffffff"
     bordercolor="#999999"
     borderopacity="1"
     inkscape:showpageshadow="0"
     inkscape:pageopacity="0"
     inkscape:pagecheckerboard="0"
     inkscape:deskcolor="#d1d1d1"
     inkscape:document-units="mm"
     showgrid="false"
     showguides="true"
     inkscape:zoom="2.8284271"
     inkscape:cx="131.34509"
     inkscape:cy="88.918678"
     inkscape:window-width="1920"
     inkscape:window-height="991"
     inkscape:window-x="-9"
     inkscape:window-y="-9"
     inkscape:window-maximized="1"
     inkscape:current-layer="layer1"><sodipodi:guide
       position="16.83798,10.995077"
       orientation="1,0"
       id="guide3414"
       inkscape:locked="false" /><sodipodi:guide
       position="4.4433558,18.946345"
       orientation="0,-1"
       id="guide3416"
       inkscape:locked="false" /><sodipodi:guide
       position="23.5264,12.567708"
       orientation="0,-1"
       id="guide3418"
       inkscape:locked="false" /><sodipodi:guide
       position="23.5264,18.946345"
       orientation="1,0"
       id="guide3420"
       inkscape:locked="false" /><sodipodi:guide
       position="10.243104,25.821853"
       orientation="1,0"
       id="guide3422"
       inkscape:locked="false" /><sodipodi:guide
       position="-11.505953,25.728309"
       orientation="0,-1"
       id="guide3424"
       inkscape:locked="false" /></sodipodi:namedview><defs
     id="defs2" /><g
     inkscape:label="Capa 1"
     inkscape:groupmode="layer"
     id="layer1"><rect
       style="opacity:1;fill:#d40000;fill-opacity:0;stroke:none;stroke-width:0.264583;stroke-linejoin:bevel;stroke-opacity:1"
       id="rect234"
       width="33.8195"
       height="33.874077"
       x="0.046175372"
       y="0.033072919"
       inkscape:label="fondo" /></g><g
     inkscape:groupmode="layer"
     id="layer4"
     inkscape:label="computadora"><path
       style="fill:none;fill-opacity:1;stroke:#000000;stroke-width:0.5;stroke-linecap:round;stroke-linejoin:round;stroke-opacity:1;stroke-dasharray:none"
       id="path2419-6"
       sodipodi:type="arc"
       sodipodi:cx="16.253326"
       sodipodi:cy="24.415064"
       sodipodi:rx="0.26458332"
       sodipodi:ry="0.26458332"
       sodipodi:start="0"
       sodipodi:end="6.2151165"
       sodipodi:open="true"
       sodipodi:arc-type="arc"
       d="m 16.51791,24.415064 a 0.26458332,0.26458332 0 0 1 -0.260081,0.264545 0.26458332,0.26458332 0 0 1 -0.268933,-0.255542 0.26458332,0.26458332 0 0 1 0.250929,-0.273242 0.26458332,0.26458332 0 0 1 0.277472,0.246243" /><path
       style="opacity:1;fill:none;fill-opacity:1;stroke:#000000;stroke-width:0.661458;stroke-linecap:round;stroke-linejoin:round;stroke-opacity:1"
       d="m 10.519781,13.756914 -1.7306535,0.0014 -0.033073,9.326563 14.8332035,0.04961 0.08269,-9.508464 -1.909961,-0.03307"
       id="path2557"
       sodipodi:nodetypes="cccccc" /><path
       style="fill:none;fill-opacity:1;stroke:#000000;stroke-width:0.664898;stroke-linecap:round;stroke-linejoin:round;stroke-opacity:1"
       d="m 12.407362,18.716227 7.668547,-0.01472"
       id="path2321-7" /><path
       style="fill:none;fill-opacity:1;stroke:#000000;stroke-width:0.664898;stroke-linecap:round;stroke-linejoin:round;stroke-opacity:1"
       d="M 12.325511,20.07262 19.994058,20.0579"
       id="path2321-7-3" /><path
       style="fill:none;fill-opacity:1;stroke:#000000;stroke-width:0.661458;stroke-linecap:round;stroke-linejoin:round;stroke-opacity:1"
       d="m 17.826312,13.444141 c 0.198438,0.198437 0.959115,0.79375 0.959115,0.79375 l -1.058334,0.892969"
       id="path2295-3" /><path
       style="opacity:1;fill:none;fill-opacity:1;stroke:#000000;stroke-width:0.661458;stroke-linecap:round;stroke-linejoin:round;stroke-opacity:1"
       d="m 16.767969,12.832292 -1.190625,2.877343"
       id="path2319" /><path
       style="opacity:1;fill:none;fill-opacity:1;stroke:#000000;stroke-width:0.661458;stroke-linecap:round;stroke-linejoin:round;stroke-opacity:1"
       d="m 14.155044,17.504651 6.151891,-0.01816"
       id="path2321" /><path
       style="opacity:1;fill:none;stroke:#000000;stroke-width:0.661458;stroke-linecap:round;stroke-linejoin:round;stroke-dasharray:none;stroke-opacity:1"
       d="m 6.8516212,25.023109 6.5899458,0.03019 0.590052,0.811663 4.380291,0.0026 0.8334,-0.735585 6.505345,-0.004 -0.07276,1.953081 -18.7969798,0.02481 z"
       id="path3914"
       sodipodi:nodetypes="ccccccccc" /><path
       style="opacity:1;fill:none;fill-opacity:1;stroke:#000000;stroke-width:0.661458;stroke-linecap:round;stroke-linejoin:round;stroke-opacity:1"
       id="path2419"
       sodipodi:type="arc"
       sodipodi:cx="12.129492"
       sodipodi:cy="9.6820965"
       sodipodi:rx="0.26458332"
       sodipodi:ry="0.26458332"
       sodipodi:start="0"
       sodipodi:end="6.2151165"
       sodipodi:open="true"
       sodipodi:arc-type="arc"
       d="M 12.394075,9.6820965 A 0.26458332,0.26458332 0 0 1 12.133994,9.9466415 0.26458332,0.26458332 0 0 1 11.865062,9.6910997 0.26458332,0.26458332 0 0 1 12.11599,9.4178579 0.26458332,0.26458332 0 0 1 12.393462,9.6641005" /><path
       style="fill:none;fill-opacity:1;stroke:#000000;stroke-width:0.661458;stroke-linecap:round;stroke-linejoin:round;stroke-opacity:1"
       id="path2419-2"
       sodipodi:type="arc"
       sodipodi:cx="13.659112"
       sodipodi:cy="9.7151632"
       sodipodi:rx="0.26458332"
       sodipodi:ry="0.26458332"
       sodipodi:start="0"
       sodipodi:end="6.2151165"
       sodipodi:open="true"
       sodipodi:arc-type="arc"
       d="M 13.923695,9.7151632 A 0.26458332,0.26458332 0 0 1 13.663614,9.9797082 0.26458332,0.26458332 0 0 1 13.394682,9.7241664 0.26458332,0.26458332 0 0 1 13.64561,9.4509246 0.26458332,0.26458332 0 0 1 13.923083,9.6971673" /><path
       style="fill:none;fill-opacity:1;stroke:#000000;stroke-width:0.661458;stroke-linecap:round;stroke-linejoin:round;stroke-opacity:1"
       id="path2419-2-0"
       sodipodi:type="arc"
       sodipodi:cx="15.122588"
       sodipodi:cy="9.7151632"
       sodipodi:rx="0.26458332"
       sodipodi:ry="0.26458332"
       sodipodi:start="0"
       sodipodi:end="6.2151165"
       sodipodi:open="true"
       sodipodi:arc-type="arc"
       d="M 15.387171,9.7151632 A 0.26458332,0.26458332 0 0 1 15.12709,9.9797082 0.26458332,0.26458332 0 0 1 14.858158,9.7241664 0.26458332,0.26458332 0 0 1 15.109087,9.4509246 0.26458332,0.26458332 0 0 1 15.386559,9.6971673" /><path
       style="fill:none;fill-opacity:1;stroke:#000000;stroke-width:0.661458;stroke-linecap:round;stroke-linejoin:round;stroke-opacity:1"
       d="m 21.918788,12.435059 c 0,0 3.252149,-0.136877 3.253183,0.09354 0.01995,4.44728 -0.02539,12.38297 -0.02539,12.38297"
       id="path2465-7"
       sodipodi:nodetypes="csc" /><path
       style="opacity:1;fill:none;fill-opacity:1;stroke:#000000;stroke-width:0.661458;stroke-linecap:round;stroke-linejoin:round;stroke-opacity:1"
       d="m 10.727662,12.3088 c 0,0 -3.2521492,-0.136877 -3.2531829,0.09354 -0.019952,4.44728 0.025392,12.38297 0.025392,12.38297"
       id="path2465"
       sodipodi:nodetypes="csc" /></g><g
     inkscape:groupmode="layer"
     id="layer3"
     inkscape:label="celular"
     style="display:none"><rect
       style="fill:none;stroke:#000000;stroke-width:0.264583;stroke-linecap:round;stroke-linejoin:round;stroke-dasharray:none;stroke-opacity:1"
       id="rect2607-9"
       width="3.4769926"
       height="1.2733091"
       x="1.3018616"
       y="22.745895"
       ry="0.11917671" /><rect
       style="fill:none;stroke:#000000;stroke-width:0.541368;stroke-linecap:round;stroke-linejoin:round;stroke-dasharray:none;stroke-opacity:1"
       id="rect424"
       width="5.3645973"
       height="8.936512"
       x="0.3416225"
       y="17.593573"
       ry="0.89739203"
       transform="matrix(0.99999975,-7.2274642e-4,7.4506667e-4,0.99999972,0,0)" /><rect
       style="fill:none;stroke:#000000;stroke-width:0.264583;stroke-linecap:round;stroke-linejoin:round;stroke-dasharray:none;stroke-opacity:1"
       id="rect2607"
       width="3.4769926"
       height="1.2733091"
       x="1.2963246"
       y="18.628321"
       ry="0.11917671" /><rect
       style="fill:none;stroke:#000000;stroke-width:0.264583;stroke-linecap:round;stroke-linejoin:round;stroke-dasharray:none;stroke-opacity:1"
       id="rect2607-1"
       width="3.5111811"
       height="2.0102973"
       x="1.2971696"
       y="20.29381"
       ry="0.18815586" /><path
       style="fill:none;stroke:#000000;stroke-width:0.264583;stroke-linecap:round;stroke-linejoin:round;stroke-dasharray:none;stroke-opacity:1"
       id="path2753"
       sodipodi:type="arc"
       sodipodi:cx="3.0238216"
       sodipodi:cy="25.648046"
       sodipodi:rx="0.34726563"
       sodipodi:ry="0.28111979"
       sodipodi:start="0"
       sodipodi:end="6.2151165"
       sodipodi:open="true"
       sodipodi:arc-type="arc"
       d="M 3.3710872,25.648046 A 0.34726563,0.28111979 0 0 1 3.0297308,25.929126 0.34726563,0.28111979 0 0 1 2.6767571,25.657612 0.34726563,0.28111979 0 0 1 3.0061008,25.367293 0.34726563,0.28111979 0 0 1 3.370283,25.628926" /><path
       style="opacity:1;fill:none;stroke:#000000;stroke-width:0.264583;stroke-linecap:round;stroke-linejoin:round;stroke-dasharray:none;stroke-opacity:1"
       d="m 0.72519744,24.855623 4.82875836,-0.0026"
       id="path2755" /></g><g
     inkscape:groupmode="layer"
     id="layer2"
     inkscape:label="code"><rect
       style="fill:none;stroke:#000000;stroke-width:0.72462;stroke-linecap:round;stroke-linejoin:round;stroke-dasharray:none;stroke-opacity:1"
       id="rect424-0"
       width="10.858969"
       height="13.360703"
       x="10.769254"
       y="8.3851643"
       ry="1.0148621"
       transform="matrix(0.99999986,-5.338206e-4,0.00100876,0.99999949,0,0)" /><path
       style="fill:none;stroke:#000000;stroke-width:0.418773;stroke-linecap:round;stroke-linejoin:round;stroke-dasharray:none;stroke-opacity:1"
       d="m 11.072309,11.012848 10.25212,-0.0031"
       id="path2755-8"
       inkscape:label="path2755-8" /><path
       style="opacity:1;fill:none;fill-opacity:1;stroke:#000000;stroke-width:0.661458;stroke-linecap:round;stroke-linejoin:round;stroke-opacity:1"
       d="m 14.717448,13.460677 c -0.198438,0.198437 -0.959115,0.79375 -0.959115,0.79375 l 1.058334,0.892969"
       id="path2295" /></g></svg>
